<svg xmlns="http://www.w3.org/2000/svg">
    <symbol id="search">
        <path d="M13 19C8.58175 19 5.00003 15.4183 5.00003 11C5.00003 6.58172 8.58175 3 13 3C17.4183 3 21 6.58172 21 11C21 15.4183 17.4183 19 13 19Z" stroke="currentColor" stroke-width="2" stroke-linecap="round" stroke-linejoin="round"/>
        <path d="M2.99998 20.9999L7.34998 16.6499" stroke="currentColor" stroke-width="2" stroke-linecap="round" stroke-linejoin="round"/>
    </symbol>
    <symbol id="login">
        <path d="M15 3H19C19.5304 3 20.0391 3.21071 20.4142 3.58579C20.7893 3.96086 21 4.46957 21 5V19C21 19.5304 20.7893 20.0391 20.4142 20.4142C20.0391 20.7893 19.5304 21 19 21H15" stroke="currentColor" stroke-width="2" stroke-linecap="round" stroke-linejoin="round"/>
        <path d="M10 17L15 12L10 7" stroke="currentColor" stroke-width="2" stroke-linecap="round" stroke-linejoin="round"/>
        <path d="M15 12H3" stroke="currentColor" stroke-width="2" stroke-linecap="round" stroke-linejoin="round"/>
    </symbol>
    <symbol id="arrow">
        <path d="M20.7071 8.20711C21.0976 7.81658 21.0976 7.18342 20.7071 6.79289L14.3431 0.428932C13.9526 0.0384078 13.3195 0.0384078 12.9289 0.428932C12.5384 0.819457 12.5384 1.45262 12.9289 1.84315L18.5858 7.5L12.9289 13.1569C12.5384 13.5474 12.5384 14.1805 12.9289 14.5711C13.3195 14.9616 13.9526 14.9616 14.3431 14.5711L20.7071 8.20711ZM0 8.5H20V6.5H0V8.5Z" fill="currentColor"/>
    </symbol>

</svg>
