<svg xmlns="http://www.w3.org/2000/svg">
    <symbol id="search">
        <path d="M13 19C8.58175 19 5.00003 15.4183 5.00003 11C5.00003 6.58172 8.58175 3 13 3C17.4183 3 21 6.58172 21 11C21 15.4183 17.4183 19 13 19Z" stroke="currentColor" stroke-width="2" stroke-linecap="round" stroke-linejoin="round"/>
        <path d="M2.99998 20.9999L7.34998 16.6499" stroke="currentColor" stroke-width="2" stroke-linecap="round" stroke-linejoin="round"/>
    </symbol>
    <symbol id="login">
        <path d="M15 3H19C19.5304 3 20.0391 3.21071 20.4142 3.58579C20.7893 3.96086 21 4.46957 21 5V19C21 19.5304 20.7893 20.0391 20.4142 20.4142C20.0391 20.7893 19.5304 21 19 21H15" stroke="currentColor" stroke-width="2" stroke-linecap="round" stroke-linejoin="round"/>
        <path d="M10 17L15 12L10 7" stroke="currentColor" stroke-width="2" stroke-linecap="round" stroke-linejoin="round"/>
        <path d="M15 12H3" stroke="currentColor" stroke-width="2" stroke-linecap="round" stroke-linejoin="round"/>
    </symbol>
    <symbol id="arrow">
        <path d="M20.7071 8.20711C21.0976 7.81658 21.0976 7.18342 20.7071 6.79289L14.3431 0.428932C13.9526 0.0384078 13.3195 0.0384078 12.9289 0.428932C12.5384 0.819457 12.5384 1.45262 12.9289 1.84315L18.5858 7.5L12.9289 13.1569C12.5384 13.5474 12.5384 14.1805 12.9289 14.5711C13.3195 14.9616 13.9526 14.9616 14.3431 14.5711L20.7071 8.20711ZM0 8.5H20V6.5H0V8.5Z" fill="currentColor"/>
    </symbol>
    <symbol id="facebook">
        <path d="M12.402 18V11.034H14.735L15.084 8.326H12.402V6.598C12.402 5.814 12.62 5.279 13.744 5.279H15.178V2.857C14.4838 2.78334 13.7861 2.74762 13.088 2.75C11.021 2.75 9.606 4.012 9.606 6.33V8.326H7.268V11.034H9.606V18H1C0.734784 18 0.48043 17.8946 0.292893 17.7071C0.105357 17.5196 0 17.2652 0 17V1C0 0.734784 0.105357 0.48043 0.292893 0.292893C0.48043 0.105357 0.734784 0 1 0H17C17.2652 0 17.5196 0.105357 17.7071 0.292893C17.8946 0.48043 18 0.734784 18 1V17C18 17.2652 17.8946 17.5196 17.7071 17.7071C17.5196 17.8946 17.2652 18 17 18H12.402Z" fill="currentColor"/>
    </symbol>
    <symbol id="twitter">
        <path d="M21.162 2.65599C20.3986 2.99368 19.589 3.21546 18.76 3.31399C19.6337 2.79142 20.2877 1.969 20.6 0.999988C19.78 1.48799 18.881 1.82999 17.944 2.01499C17.3146 1.34157 16.4804 0.894951 15.5709 0.744572C14.6615 0.594194 13.7279 0.748479 12.9153 1.18344C12.1026 1.6184 11.4564 2.30967 11.0771 3.14978C10.6978 3.98989 10.6067 4.93177 10.818 5.82899C9.1551 5.74564 7.52832 5.31351 6.04328 4.56065C4.55823 3.80779 3.24812 2.75104 2.19799 1.45899C1.82628 2.09744 1.63095 2.82321 1.63199 3.56199C1.63199 5.01199 2.36999 6.29299 3.49199 7.04299C2.828 7.02208 2.17862 6.84277 1.59799 6.51999V6.57199C1.59819 7.53769 1.93236 8.4736 2.54384 9.22105C3.15532 9.96849 4.00647 10.4815 4.95299 10.673C4.33661 10.84 3.6903 10.8646 3.06299 10.745C3.32986 11.5762 3.85 12.3032 4.55058 12.8241C5.25117 13.345 6.09712 13.6338 6.96999 13.65C6.10247 14.3313 5.10917 14.835 4.04687 15.1322C2.98458 15.4293 1.87412 15.5142 0.778992 15.382C2.69069 16.6114 4.91609 17.2641 7.18899 17.262C14.882 17.262 19.089 10.889 19.089 5.36199C19.089 5.18199 19.084 4.99999 19.076 4.82199C19.8949 4.23016 20.6016 3.49701 21.163 2.65699L21.162 2.65599Z" fill="currentColor"/>
    </symbol>
    <symbol id="insta">
        <path d="M10 0C12.717 0 13.056 0.00999994 14.122 0.0599999C15.187 0.11 15.912 0.277 16.55 0.525C17.21 0.779 17.766 1.123 18.322 1.678C18.8305 2.1779 19.224 2.78259 19.475 3.45C19.722 4.087 19.89 4.813 19.94 5.878C19.987 6.944 20 7.283 20 10C20 12.717 19.99 13.056 19.94 14.122C19.89 15.187 19.722 15.912 19.475 16.55C19.2247 17.2178 18.8311 17.8226 18.322 18.322C17.822 18.8303 17.2173 19.2238 16.55 19.475C15.913 19.722 15.187 19.89 14.122 19.94C13.056 19.987 12.717 20 10 20C7.283 20 6.944 19.99 5.878 19.94C4.813 19.89 4.088 19.722 3.45 19.475C2.78233 19.2245 2.17753 18.8309 1.678 18.322C1.16941 17.8222 0.775931 17.2175 0.525 16.55C0.277 15.913 0.11 15.187 0.0599999 14.122C0.0129999 13.056 0 12.717 0 10C0 7.283 0.00999994 6.944 0.0599999 5.878C0.11 4.812 0.277 4.088 0.525 3.45C0.775236 2.78218 1.1688 2.17732 1.678 1.678C2.17767 1.16923 2.78243 0.775729 3.45 0.525C4.088 0.277 4.812 0.11 5.878 0.0599999C6.944 0.0129999 7.283 0 10 0ZM10 5C8.67392 5 7.40215 5.52678 6.46447 6.46447C5.52678 7.40215 5 8.67392 5 10C5 11.3261 5.52678 12.5979 6.46447 13.5355C7.40215 14.4732 8.67392 15 10 15C11.3261 15 12.5979 14.4732 13.5355 13.5355C14.4732 12.5979 15 11.3261 15 10C15 8.67392 14.4732 7.40215 13.5355 6.46447C12.5979 5.52678 11.3261 5 10 5ZM16.5 4.75C16.5 4.41848 16.3683 4.10054 16.1339 3.86612C15.8995 3.6317 15.5815 3.5 15.25 3.5C14.9185 3.5 14.6005 3.6317 14.3661 3.86612C14.1317 4.10054 14 4.41848 14 4.75C14 5.08152 14.1317 5.39946 14.3661 5.63388C14.6005 5.8683 14.9185 6 15.25 6C15.5815 6 15.8995 5.8683 16.1339 5.63388C16.3683 5.39946 16.5 5.08152 16.5 4.75ZM10 7C10.7956 7 11.5587 7.31607 12.1213 7.87868C12.6839 8.44129 13 9.20435 13 10C13 10.7956 12.6839 11.5587 12.1213 12.1213C11.5587 12.6839 10.7956 13 10 13C9.20435 13 8.44129 12.6839 7.87868 12.1213C7.31607 11.5587 7 10.7956 7 10C7 9.20435 7.31607 8.44129 7.87868 7.87868C8.44129 7.31607 9.20435 7 10 7Z" fill="currentColor"/>
    </symbol>
    <symbol id="yt">
        <path d="M19.543 2.498C20 4.28 20 8 20 8C20 8 20 11.72 19.543 13.502C19.289 14.487 18.546 15.262 17.605 15.524C15.896 16 10 16 10 16C10 16 4.107 16 2.395 15.524C1.45 15.258 0.708 14.484 0.457 13.502C2.98023e-08 11.72 0 8 0 8C0 8 2.98023e-08 4.28 0.457 2.498C0.711 1.513 1.454 0.738 2.395 0.476C4.107 -1.78814e-07 10 0 10 0C10 0 15.896 -1.78814e-07 17.605 0.476C18.55 0.742 19.292 1.516 19.543 2.498ZM8 11.5L14 8L8 4.5V11.5Z" fill="currentColor"/>
    </symbol>
</svg>
